<svg width="74" height="74" viewBox="0 0 74 74" fill="none" xmlns="http://www.w3.org/2000/svg">
<path d="M55.2846 17.5563C50.3801 13.3284 43.8678 11 36.9468 11C30.0258 11 23.5134 13.3284 18.609 17.5563C13.6679 21.8158 10.9468 27.4899 10.9468 33.5333C10.9468 40.1794 14.2956 46.433 20.1405 50.727C20.4596 51.3896 20.8102 52.0417 21.1925 52.6832L19.2258 53.6665C19.0819 53.7385 18.9608 53.8492 18.8762 53.9861C18.7916 54.123 18.7468 54.2807 18.7468 54.4417C18.7468 54.6026 18.7916 54.7604 18.8762 54.8973C18.9608 55.0342 19.0819 55.1448 19.2258 55.2168L21.6589 56.4334C22.1614 56.6859 22.5692 57.0936 22.8217 57.5961L24.0383 60.0293C24.1103 60.1732 24.221 60.2943 24.3579 60.3789C24.4948 60.4635 24.6525 60.5083 24.8134 60.5083C24.9744 60.5083 25.1321 60.4635 25.269 60.3789C25.4059 60.2943 25.5166 60.1732 25.5886 60.0293L26.2508 58.7048C29.5259 61.4824 33.2851 63 36.9468 63H49.0801C49.2099 63 49.3379 62.9709 49.4549 62.9147C49.5719 62.8586 49.6748 62.777 49.756 62.6758L57.3792 53.1774C58.1731 52.3696 58.6166 51.2814 58.6134 50.1487V45.995C61.4487 42.2991 62.9468 37.9967 62.9468 33.5333C62.9468 27.4899 60.2257 21.8158 55.2846 17.5563ZM12.6801 33.5333C12.6801 22.0642 23.5661 12.7333 36.9468 12.7333C39.8775 12.7281 42.7904 13.1874 45.5774 14.094C45.3534 15.7423 44.1033 18.2604 42.325 20.5875C40.3683 23.1468 38.207 24.8667 36.9468 24.8667C31.6897 24.8667 26.9265 26.3659 23.5351 29.0881C19.8355 32.0574 17.8801 36.2917 17.8801 41.3333C17.8934 43.3762 18.2094 45.4058 18.8181 47.3559C14.8844 43.5698 12.6801 38.6734 12.6801 33.5333ZM52.7472 37.992C52.4108 38.3229 52.1433 38.7171 51.9602 39.1519C51.777 39.5867 51.6818 40.0535 51.6801 40.5253V48.836L50.1463 50.8076C49.928 50.2811 49.5832 49.8166 49.1425 49.4552C48.7019 49.0937 48.1788 48.8465 47.6198 48.7354C47.0608 48.6243 46.483 48.6528 45.9376 48.8182C45.3922 48.9837 44.896 49.2811 44.493 49.6841C44.4557 49.7212 44.422 49.7618 44.3922 49.8051L36.4983 61.2569C33.2873 61.1333 29.9874 59.6892 27.0958 57.1448C27.3315 56.8472 27.6291 56.6044 27.968 56.4334L30.4011 55.2168C30.545 55.1448 30.666 55.0342 30.7506 54.8973C30.8352 54.7604 30.8801 54.6026 30.8801 54.4417C30.8801 54.2807 30.8352 54.123 30.7506 53.9861C30.666 53.8492 30.545 53.7385 30.4011 53.6665L27.968 52.45C27.4655 52.1974 27.0577 51.7897 26.8052 51.2872L25.5886 48.854C25.5166 48.7101 25.4059 48.5891 25.269 48.5045C25.1321 48.4199 24.9744 48.3751 24.8134 48.3751C24.6525 48.3751 24.4948 48.4199 24.3579 48.5045C24.221 48.5891 24.1103 48.7101 24.0383 48.854L22.8217 51.2871C22.7574 51.4154 22.6824 51.5381 22.5976 51.6539C20.668 48.3693 19.6134 44.7408 19.6134 41.3333C19.6134 36.8357 21.3446 33.0687 24.62 30.4399C27.7049 27.9637 32.0826 26.6 36.9468 26.6C41.2388 26.6 45.0911 27.631 48.0868 29.5814C50.9537 31.4481 52.9048 34.1037 53.7668 37.2948C53.3882 37.4646 53.0429 37.7008 52.7472 37.992ZM24.8134 57.7037L24.3721 56.8209C23.9512 55.9834 23.2716 55.3039 22.4341 54.883L21.5514 54.4417L22.4341 54.0003C23.2716 53.5794 23.9512 52.8998 24.3721 52.0623L24.8134 51.1796L25.2548 52.0625C25.6757 52.8999 26.3553 53.5794 27.1928 54.0003L28.0755 54.4417L27.1928 54.883C26.3553 55.3039 25.6757 55.9835 25.2548 56.821L24.8134 57.7037ZM56.8801 50.1487C56.8811 50.4903 56.8143 50.8287 56.6835 51.1442C56.5528 51.4598 56.3608 51.7463 56.1186 51.9872C56.0963 52.0094 56.0752 52.0329 56.0555 52.0576L48.6644 61.2667H38.5968L45.7699 50.8609C46.1032 50.5523 46.5444 50.3869 46.9985 50.4003C47.4526 50.4137 47.8833 50.6048 48.1979 50.9325C48.5125 51.2603 48.6859 51.6984 48.6807 52.1527C48.6755 52.607 48.4921 53.041 48.1701 53.3615C48.138 53.3936 48.1085 53.4282 48.0818 53.4649L45.7792 56.6342C45.6493 56.8204 45.5977 57.0501 45.6354 57.2739C45.6731 57.4978 45.7971 57.6979 45.9808 57.8313C46.1644 57.9647 46.3931 58.0207 46.6176 57.9873C46.8422 57.9538 47.0446 57.8337 47.1815 57.6526L49.4468 54.5346C49.6167 54.3573 49.7673 54.1623 49.8959 53.9531L53.231 49.6649V49.6638C53.3493 49.5123 53.4135 49.3256 53.4134 49.1333V40.5253C53.4146 40.2838 53.4636 40.0449 53.5576 39.8225C53.6516 39.6001 53.7887 39.3984 53.9611 39.2293C54.1209 39.0693 54.3111 38.9429 54.5206 38.8578C54.73 38.7726 54.9545 38.7303 55.1806 38.7333C55.6337 38.7443 56.0647 38.9315 56.3821 39.2551C56.6994 39.5788 56.8781 40.0134 56.8801 40.4667V50.1487ZM55.4867 37.0178C54.5384 33.3313 52.3182 30.2686 49.0327 28.1289C46.5943 26.5414 43.6571 25.511 40.4073 25.0871C41.8327 23.9633 43.0562 22.4844 43.7019 21.6395C45.8569 18.8205 46.8987 16.3708 47.2273 14.6954C55.4826 18.0183 61.2134 25.2124 61.2134 33.5333C61.2061 36.8346 60.3078 40.0728 58.6134 42.9061V40.4667C58.609 39.6075 58.2873 38.7802 57.7103 38.1437C57.1332 37.5072 56.3413 37.1062 55.4867 37.0178Z" fill="#617C5F"/>
<path d="M30.8802 41.3333C31.1101 41.3333 31.3305 41.242 31.493 41.0795C31.6556 40.9169 31.7469 40.6965 31.7469 40.4666C31.7469 39.7771 31.4729 39.1158 30.9854 38.6282C30.4978 38.1406 29.8364 37.8666 29.1469 37.8666C28.4573 37.8666 27.796 38.1406 27.3084 38.6282C26.8208 39.1158 26.5469 39.7771 26.5469 40.4666C26.5469 40.6965 26.6382 40.9169 26.8007 41.0795C26.9632 41.242 27.1837 41.3333 27.4135 41.3333C27.6434 41.3333 27.8638 41.242 28.0264 41.0795C28.1889 40.9169 28.2802 40.6965 28.2802 40.4666C28.2802 40.2368 28.3715 40.0163 28.534 39.8538C28.6966 39.6913 28.917 39.6 29.1469 39.6C29.3767 39.6 29.5972 39.6913 29.7597 39.8538C29.9222 40.0163 30.0135 40.2368 30.0135 40.4666C30.0135 40.6965 30.1049 40.9169 30.2674 41.0795C30.4299 41.242 30.6504 41.3333 30.8802 41.3333Z" fill="#617C5F"/>
<path d="M44.7467 37.8666C44.0574 37.8674 43.3965 38.1416 42.9091 38.629C42.4217 39.1164 42.1475 39.7773 42.1467 40.4666C42.1467 40.6965 42.238 40.9169 42.4006 41.0795C42.5631 41.242 42.7835 41.3333 43.0134 41.3333C43.2432 41.3333 43.4637 41.242 43.6262 41.0795C43.7888 40.9169 43.8801 40.6965 43.8801 40.4666C43.8801 40.2368 43.9714 40.0163 44.1339 39.8538C44.2964 39.6913 44.5169 39.6 44.7467 39.6C44.9766 39.6 45.197 39.6913 45.3596 39.8538C45.5221 40.0163 45.6134 40.2368 45.6134 40.4666C45.6134 40.6965 45.7047 40.9169 45.8672 41.0795C46.0298 41.242 46.2502 41.3333 46.4801 41.3333C46.7099 41.3333 46.9304 41.242 47.0929 41.0795C47.2554 40.9169 47.3467 40.6965 47.3467 40.4666C47.346 39.7773 47.0718 39.1164 46.5844 38.629C46.0969 38.1416 45.4361 37.8674 44.7467 37.8666Z" fill="#617C5F"/>
<path d="M43.3608 46.606C43.1503 46.5139 42.9117 46.5092 42.6976 46.5929C42.4836 46.6766 42.3116 46.842 42.2194 47.0526C42.2065 47.082 40.8844 50 36.9467 50C33.0611 50 31.7327 47.1815 31.6723 47.0487C31.5788 46.8397 31.4063 46.6763 31.1926 46.594C30.979 46.5118 30.7415 46.5174 30.5319 46.6097C30.3224 46.702 30.1579 46.8734 30.0744 47.0866C29.9909 47.2998 29.9951 47.5373 30.0861 47.7474C30.1573 47.9101 31.8881 51.7333 36.9467 51.7333C42.0054 51.7333 43.7362 47.9101 43.8074 47.7474C43.8995 47.5368 43.9042 47.2983 43.8205 47.0842C43.7367 46.8702 43.5714 46.6982 43.3608 46.606Z" fill="#617C5F"/>
<path d="M35.2133 44.8H38.68C38.9099 44.8 39.1303 44.7087 39.2928 44.5461C39.4554 44.3836 39.5467 44.1632 39.5467 43.9333C39.5467 43.7035 39.4554 43.483 39.2928 43.3205C39.1303 43.158 38.9099 43.0666 38.68 43.0666H36.08V40.4666C36.08 40.2368 35.9887 40.0163 35.8262 39.8538C35.6636 39.6913 35.4432 39.6 35.2133 39.6C34.9835 39.6 34.7631 39.6913 34.6005 39.8538C34.438 40.0163 34.3467 40.2368 34.3467 40.4666V43.9333C34.3467 44.1632 34.438 44.3836 34.6005 44.5461C34.7631 44.7087 34.9835 44.8 35.2133 44.8Z" fill="#617C5F"/>
</svg>
