<svg width="74" height="74" viewBox="0 0 74 74" fill="none" xmlns="http://www.w3.org/2000/svg">
<path d="M64.0479 44.2079C63.2205 44.1351 62.3904 44.3142 61.6666 44.7218V25.6946C62.8019 25.6946 63.7221 24.7743 63.7221 23.6391V18.5002C63.7221 16.7974 62.3416 15.4169 60.6388 15.4169H51.1207C52.5128 13.7294 52.8063 11.3901 51.8742 9.41103C50.9421 7.43193 48.9517 6.16838 46.7641 6.16693H45.7363C43.8932 6.16814 42.1667 7.06904 41.1114 8.5801C40.0561 7.06892 38.3295 6.16814 36.4864 6.16693H35.4587C33.2711 6.16838 31.2807 7.43193 30.3486 9.41103C29.4165 11.3901 29.7099 13.7294 31.1021 15.4169H21.5839C19.8811 15.4169 18.5006 16.7974 18.5006 18.5002V23.6391C18.5006 24.7743 19.4209 25.6946 20.5562 25.6946V52.1875C18.063 53.8262 15.7521 55.7268 13.6629 57.8567C11.6708 59.8475 6.60383 63.9071 6.55252 63.9472C6.10917 64.3019 6.03739 64.9489 6.39221 65.3923C6.74703 65.8356 7.39393 65.9074 7.83727 65.5526C8.04901 65.383 13.044 61.3819 15.1159 59.3099C23.1377 51.2861 29.0865 50.3611 32.8635 50.3611C34.2893 50.3528 35.6723 50.8478 36.7691 51.7589C37.3072 52.1916 37.9789 52.4242 38.6694 52.4166H49.1383C50.276 52.3854 51.2451 53.2372 51.3604 54.3693C51.3885 54.932 51.1845 55.4817 50.7959 55.8896C50.4073 56.2977 49.8682 56.5282 49.3048 56.5276H37.9993C37.4316 56.5276 36.9715 56.9878 36.9715 57.5554C36.9715 58.1229 37.4316 58.5831 37.9993 58.5831H49.3048C50.4319 58.5832 51.5096 58.1205 52.2858 57.3033C53.0621 56.4861 53.4687 55.386 53.4106 54.2603C53.4106 54.246 53.4045 54.2326 53.4034 54.2182L62.345 46.7298C62.7664 46.3768 63.3111 46.2059 63.8586 46.2549C64.4061 46.3039 64.9118 46.5687 65.2639 46.9909C65.9395 47.8129 65.8926 49.0105 65.1549 49.7772L52.3315 62.8299C51.8049 63.3718 51.0906 63.6911 50.3355 63.722H31.7677C30.3238 63.7213 28.8932 63.9983 27.5538 64.538L24.2866 65.8515C23.7598 66.0632 23.5045 66.6618 23.7162 67.1887C23.9279 67.7155 24.5265 67.9708 25.0533 67.7591L28.3206 66.4446C29.4163 66.0037 30.5866 65.7773 31.7677 65.7776H50.3703C51.6665 65.7399 52.898 65.2027 53.8071 64.2781L66.6285 51.2171C67.7466 50.0769 68.1076 48.3944 67.5558 46.8959C67.0041 45.3974 65.6385 44.351 64.0479 44.2079ZM61.6667 18.5003V23.6392H47.2779V17.4726H60.6388C61.2065 17.4724 61.6667 17.9327 61.6667 18.5003ZM43.1668 50.3611H39.0557V25.6946H43.1667L43.1668 50.3611ZM44.1946 23.6391H37.0002V17.4724H45.2224V23.6391H44.1946ZM45.7362 8.22251H46.7639C48.7506 8.22251 50.3612 9.83306 50.3612 11.8197C50.3612 13.8064 48.7506 15.417 46.7639 15.417H42.139V11.8197C42.139 9.83306 43.7495 8.22251 45.7362 8.22251ZM31.8613 11.8197C31.8613 9.83306 33.4719 8.22251 35.4586 8.22251H36.4863C38.473 8.22251 40.0835 9.83306 40.0835 11.8197V15.417H35.4586C33.4719 15.417 31.8613 13.8064 31.8613 11.8197ZM20.5558 18.5003C20.5558 17.9327 21.016 17.4726 21.5835 17.4726H34.9445V23.6392H20.5558V18.5003ZM32.8634 48.3055C29.274 48.2971 25.743 49.2143 22.6114 50.9685V25.6946H37.0002V49.4289C35.7451 48.6948 34.3175 48.3071 32.8634 48.3055ZM49.1381 50.3611H45.2223V25.6946H59.6111V46.3435L52.6696 52.1556C51.8525 51.0208 50.5364 50.352 49.1381 50.3611Z" fill="#617C5F"/>
<path d="M66.235 10.451L63.1517 12.5066C62.6794 12.8217 62.552 13.4599 62.867 13.9322C63.182 14.4044 63.8203 14.5319 64.2925 14.2169L67.3759 12.1613C67.6813 11.9575 67.855 11.6062 67.8312 11.2398C67.8075 10.8733 67.5901 10.5474 67.2608 10.3847C66.9315 10.2218 66.5406 10.2472 66.235 10.451Z" fill="#617C5F"/>
<path d="M60.6385 12.3332C61.1096 12.3327 61.5199 12.0121 61.6345 11.5551L62.6622 7.44403C62.7799 6.90179 62.4459 6.36413 61.9076 6.22924C61.3695 6.09434 60.8213 6.41099 60.6693 6.94455L59.6416 11.0556C59.5754 11.3201 59.617 11.6002 59.7574 11.8341C59.8977 12.0678 60.1252 12.2363 60.3898 12.3023C60.4711 12.3231 60.5547 12.3334 60.6385 12.3332Z" fill="#617C5F"/>
<path d="M14.5618 10.7359C14.4105 10.9627 14.3554 11.2403 14.4088 11.5076C14.4622 11.775 14.6196 12.0101 14.8465 12.1613L17.9298 14.2169C18.4021 14.532 19.0403 14.4045 19.3554 13.9322C19.6705 13.46 19.5429 12.8217 19.0707 12.5066L15.9873 10.451C15.7605 10.2998 15.4829 10.2447 15.2155 10.2981C14.9481 10.3517 14.713 10.5091 14.5618 10.7359Z" fill="#617C5F"/>
<path d="M20.3068 6.19785C20.0422 6.26386 19.8147 6.43236 19.6743 6.66614C19.534 6.89992 19.4924 7.17995 19.5586 7.44456L20.5863 11.5556C20.7009 12.013 21.1118 12.3337 21.5833 12.3337C21.6674 12.3341 21.7514 12.3237 21.833 12.3029C22.0977 12.2369 22.3252 12.0684 22.4655 11.8346C22.6058 11.6008 22.6475 11.3208 22.5812 11.0562L21.5535 6.94508C21.4156 6.39442 20.8575 6.05995 20.3068 6.19785Z" fill="#617C5F"/>
</svg>
