<svg width="74" height="74" viewBox="0 0 74 74" fill="none" xmlns="http://www.w3.org/2000/svg">
<path d="M14.6301 19.843L13.9425 23.7446C13.8858 24.0662 14.0178 24.3919 14.283 24.5852C14.5483 24.7786 14.9011 24.8062 15.1936 24.6564L18.8135 22.8043L22.4333 24.6564C22.5586 24.7205 22.6949 24.7521 22.8306 24.7521C23.0119 24.7521 23.1923 24.6958 23.3439 24.5852C23.6092 24.3919 23.7411 24.0662 23.6844 23.7446L22.9969 19.843L25.9125 17.0769C26.1523 16.8495 26.2401 16.5062 26.1386 16.193C26.0372 15.8797 25.7643 15.6514 25.4358 15.6049L21.3928 15.0331L19.5877 11.4734C19.4406 11.1832 19.141 11.0001 18.8135 11.0001C18.4859 11.0001 18.1864 11.1832 18.0392 11.4734L16.2341 15.0331L12.1911 15.6049C11.8627 15.6514 11.5898 15.8797 11.4883 16.193C11.3869 16.5062 11.4746 16.8495 11.7144 17.0769L14.6301 19.843ZM16.9272 16.6715C17.2081 16.6318 17.4516 16.4582 17.5791 16.2068L18.8135 13.7726L20.0478 16.2068C20.1753 16.4582 20.4188 16.6318 20.6997 16.6715L23.4259 17.057L21.4644 18.918C21.2555 19.1161 21.16 19.4046 21.2098 19.687L21.6764 22.3348L19.2108 21.0733C19.0862 21.0095 18.9498 20.9776 18.8135 20.9776C18.6771 20.9776 18.5407 21.0095 18.4161 21.0733L15.9506 22.3348L16.4172 19.687C16.4669 19.4046 16.3715 19.1161 16.1625 18.918L14.201 17.057L16.9272 16.6715Z" fill="#617C5F"/>
<path d="M31.0967 19.843L30.4091 23.7446C30.3524 24.0662 30.4843 24.3919 30.7496 24.5852C31.0149 24.7786 31.3678 24.8062 31.6602 24.6564L35.28 22.8043L38.8999 24.6564C39.0252 24.7205 39.1614 24.7521 39.2972 24.7521C39.4785 24.7521 39.6588 24.6958 39.8105 24.5852C40.0758 24.3919 40.2077 24.0662 40.151 23.7446L39.4634 19.843L42.3791 17.0769C42.6189 16.8495 42.7066 16.5062 42.6052 16.193C42.5037 15.8797 42.2308 15.6514 41.9024 15.6049L37.8594 15.0331L36.0543 11.4734C35.9071 11.1832 35.6076 11.0001 35.2801 11.0001C34.9525 11.0001 34.653 11.1832 34.5058 11.4734L32.7007 15.0331L28.6577 15.6049C28.3292 15.6514 28.0563 15.8797 27.9549 16.193C27.8534 16.5062 27.9412 16.8495 28.181 17.0769L31.0967 19.843ZM33.3938 16.6715C33.6747 16.6318 33.9182 16.4582 34.0457 16.2068L35.28 13.7726L36.5144 16.2068C36.6419 16.4582 36.8854 16.6318 37.1663 16.6715L39.8925 17.057L37.931 18.9179C37.722 19.1161 37.6265 19.4046 37.6763 19.687L38.1429 22.3348L35.6774 21.0733C35.5528 21.0095 35.4164 20.9776 35.28 20.9776C35.1437 20.9776 35.0073 21.0095 34.8827 21.0733L32.4171 22.3348L32.8837 19.687C32.9335 19.4046 32.838 19.1161 32.6291 18.9179L30.6676 17.057L33.3938 16.6715Z" fill="#617C5F"/>
<path d="M51.6599 55.3738C51.2421 55.1423 50.714 55.2904 50.4805 55.7049L47.3383 61.2812H33.1135C32.6348 61.2812 32.2468 61.6659 32.2468 62.1407C32.2468 62.6154 32.6348 63.0002 33.1135 63.0002H47.8468C48.1608 63.0002 48.4502 62.8318 48.6033 62.5599L51.9936 56.5434C52.2271 56.1291 52.0776 55.6054 51.6599 55.3738Z" fill="#617C5F"/>
<path d="M23.58 26.9008C19.5181 26.9008 16.2134 30.1781 16.2134 34.2065C16.2134 38.235 19.5181 41.5123 23.58 41.5123C27.642 41.5123 30.9467 38.235 30.9467 34.2065C30.9467 30.1781 27.642 26.9008 23.58 26.9008ZM23.58 39.7933C20.4738 39.7933 17.9467 37.2871 17.9467 34.2065C17.9467 31.126 20.4738 28.6198 23.58 28.6198C26.6863 28.6198 29.2134 31.126 29.2134 34.2065C29.2134 37.2871 26.6863 39.7933 23.58 39.7933Z" fill="#617C5F"/>
<path d="M28.3468 55.2645H17.9468C17.4681 55.2645 17.0801 55.6493 17.0801 56.124C17.0801 56.5987 17.4681 56.9835 17.9468 56.9835H28.3468C29.5415 56.9835 30.5135 57.9475 30.5135 59.1323C30.5135 60.3171 29.5415 61.281 28.3468 61.281H15.3468C14.1521 61.281 13.1801 60.3171 13.1801 59.1323V47.0992C13.1801 45.9144 14.1521 44.9505 15.3468 44.9505H32.6801C33.1588 44.9505 33.5468 44.5657 33.5468 44.0909C33.5468 43.6162 33.1588 43.2314 32.6801 43.2314H15.3468C13.1963 43.2314 11.4468 44.9665 11.4468 47.0992V59.1323C11.4468 61.265 13.1963 63 15.3468 63H28.3468C30.4973 63 32.2468 61.265 32.2468 59.1323C32.2468 56.9996 30.4973 55.2645 28.3468 55.2645Z" fill="#617C5F"/>
<path d="M50.8801 32.0579C54.9421 32.0579 58.2468 28.7805 58.2468 24.7521C58.2468 20.7237 54.9421 17.4464 50.8801 17.4464C46.8181 17.4464 43.5134 20.7237 43.5134 24.7521C43.5134 28.7805 46.8181 32.0579 50.8801 32.0579ZM50.8801 19.1654C53.9863 19.1654 56.5134 21.6716 56.5134 24.7522C56.5134 27.8327 53.9863 30.3389 50.8801 30.3389C47.7739 30.3389 45.2468 27.8327 45.2468 24.7522C45.2468 21.6716 47.7739 19.1654 50.8801 19.1654Z" fill="#617C5F"/>
<path d="M59.5468 33.777H41.7801C39.6296 33.777 37.8801 35.5121 37.8801 37.6448V44.0911C37.8801 44.5658 38.2681 44.9506 38.7468 44.9506C39.2254 44.9506 39.6134 44.5658 39.6134 44.0911V37.6448C39.6134 36.46 40.5854 35.496 41.7801 35.496H59.5468C60.7414 35.496 61.7134 36.46 61.7134 37.6448V50.5374C61.7134 51.7222 60.7414 52.6861 59.5468 52.6861H47.8468C46.6521 52.6861 45.6801 51.7222 45.6801 50.5374C45.6801 49.3526 46.6521 48.3886 47.8468 48.3886H56.0801C56.5588 48.3886 56.9468 48.0038 56.9468 47.5291V41.5126C56.9468 41.0379 56.5588 40.6531 56.0801 40.6531C55.6014 40.6531 55.2134 41.0379 55.2134 41.5126V46.6696H34.4134C34.1093 46.6696 33.8274 46.8277 33.6707 47.0862L29.762 53.5325C29.5153 53.9392 29.6479 54.4674 30.0581 54.712C30.1979 54.7953 30.3519 54.835 30.5039 54.835C30.798 54.835 31.0849 54.6865 31.2475 54.4183L34.9036 48.3886H44.6056C44.1896 49.0036 43.9467 49.7428 43.9467 50.5374C43.9467 52.6701 45.6963 54.4051 47.8467 54.4051H57.8134V62.1407C57.8134 62.6154 58.2014 63.0002 58.6801 63.0002C59.1588 63.0002 59.5468 62.6154 59.5468 62.1407V54.4051C61.6972 54.4051 63.4468 52.6701 63.4468 50.5374V37.6448C63.4468 35.5121 61.6973 33.777 59.5468 33.777Z" fill="#617C5F"/>
</svg>
