<svg width="180" height="100" viewBox="0 0 180 100" fill="none" xmlns="http://www.w3.org/2000/svg">
<path d="M13.5691 42.3915H7.11944V6.58086H0V0.632324H20.745V6.58086H13.5629V42.3915H13.5691Z" fill="#C8D8C0"/>
<path d="M30.3754 24.4646V42.3919H23.926V0.626465H30.3754V18.5099H39.5801V0.626465H46.0298V42.3857H39.5801V24.4584H30.3754V24.4646Z" fill="#C8D8C0"/>
<path d="M73.5434 29.1169C73.5434 33.8132 72.8547 36.631 71.1641 39.0103C69.2855 41.6403 66.1545 43.0179 62.1472 43.0179C58.1396 43.0179 55.0089 41.6403 53.1304 39.0103C51.4397 36.631 50.7507 33.8132 50.7507 29.1169V13.901C50.7507 9.2047 51.4397 6.38694 53.1304 4.00757C55.0089 1.37766 58.1396 0 62.1472 0C66.1545 0 69.2855 1.37766 71.1641 4.00757C72.8547 6.38694 73.5434 9.2047 73.5434 13.901V29.1169ZM57.2004 28.9918C57.2004 32.3104 57.3882 33.3748 58.0145 34.6898C58.7659 36.0674 60.3311 36.944 62.1472 36.944C63.963 36.944 65.5285 36.0674 66.2799 34.6898C66.9686 33.3748 67.0938 32.3731 67.0938 28.9918V14.0261C67.0938 10.6448 66.9686 9.64311 66.2799 8.32815C65.5285 6.95049 63.963 6.07394 62.1472 6.07394C60.3311 6.07394 58.7659 6.95049 58.0145 8.32815C57.3882 9.58041 57.2004 10.7075 57.2004 14.0261V28.9918Z" fill="#C8D8C0"/>
<path d="M99.8554 0.626465V28.9293C99.8554 34.1891 99.2292 36.8817 97.4761 39.2611C95.66 41.7032 92.5919 43.0181 88.8349 43.0181C85.0779 43.0181 81.9469 41.7032 80.1311 39.2611C78.3777 36.8817 77.7517 34.1891 77.7517 28.9293V0.626465H84.2011V29.9875C84.2011 34.9343 85.5161 36.938 88.8349 36.938C92.1535 36.938 93.4058 34.9343 93.4058 29.9875V0.626465H99.8554Z" fill="#C8D8C0"/>
<path d="M127.375 19.6179V42.3917H124.057L122.867 38.8225C120.738 41.8281 118.421 43.0179 115.04 43.0179C111.22 43.0179 108.027 41.2021 106.399 38.1338C105.021 35.4412 104.583 32.7488 104.583 26.9879V15.4665C104.583 8.829 105.084 6.44964 107.025 3.88217C108.841 1.37766 112.034 0 115.854 0C123.055 0 127.187 4.75898 127.187 12.9617V14.6962H120.738V13.3374C120.738 8.57845 119.047 6.07394 115.791 6.07394C114.1 6.07394 112.66 6.82534 111.971 8.20275C111.22 9.58041 111.032 10.7702 111.032 14.214V26.9879C111.032 30.4319 111.22 32.2477 111.721 33.8132C112.41 35.7544 114.038 36.944 116.104 36.944C119.485 36.944 120.926 34.5019 120.926 28.6785V24.9404H115.603V19.6179H127.375Z" fill="#C8D8C0"/>
<path d="M139.523 24.4646V42.3919H133.073V0.626465H139.523V18.5099H148.728V0.626465H155.177V42.3857H148.728V24.4584H139.523V24.4646Z" fill="#C8D8C0"/>
<path d="M172.016 42.3915H165.565V6.58086H158.446V0.632324H179.192V6.58086H172.009V42.3915H172.016Z" fill="#C8D8C0"/>
<path d="M21.7846 72.7112V70.3191C21.7846 65.4977 20.0939 63.0556 16.9005 63.0556C15.1471 63.0556 13.7694 63.807 13.0807 65.122C12.2666 66.4996 12.0788 67.7519 12.0788 71.1332V85.0342C12.0788 88.2277 12.2666 89.8559 12.7677 91.2333C13.3937 92.8615 15.0219 93.9259 16.9005 93.9259C20.2818 93.9259 21.9097 91.2333 21.9097 85.7856V83.1119H28.4218V86.1613C28.4218 95.2409 24.477 99.9998 16.9629 99.9998C12.7677 99.9998 9.44887 98.3716 7.63306 95.366C6.06755 92.7988 5.62939 90.3567 5.62939 84.1577V72.4482C5.62939 65.8109 6.13025 63.494 8.07146 60.8641C9.88727 58.3593 13.018 56.9817 16.9005 56.9817C24.0388 56.9817 28.234 61.7407 28.234 69.9437V72.7112H21.7846Z" fill="#C8D8C0"/>
<path d="M68.0459 99.3737H61.5962V63.563H54.4768V57.6143H75.2218V63.563H68.0459V99.3737Z" fill="#C8D8C0"/>
<path d="M109.999 93.4252H118.997V99.3737H103.55V57.6143H109.999V93.4252Z" fill="#C8D8C0"/>
<path d="M144.095 86.0986C144.095 90.7949 143.406 93.6127 141.715 95.9923C139.837 98.6222 136.706 99.9998 132.698 99.9998C128.691 99.9998 125.56 98.6222 123.682 95.9923C121.991 93.6127 121.302 90.7949 121.302 86.0986V70.8829C121.302 66.1866 121.991 63.3686 123.682 60.9893C125.56 58.3594 128.691 56.9817 132.698 56.9817C136.706 56.9817 139.837 58.3594 141.715 60.9893C143.406 63.3686 144.095 66.1866 144.095 70.8829V86.0986ZM127.752 85.9735C127.752 89.2921 127.94 90.3567 128.566 91.6717C129.317 93.0491 130.883 93.9259 132.698 93.9259C134.515 93.9259 136.08 93.0491 136.831 91.6717C137.52 90.3567 137.645 89.3548 137.645 85.9735V71.0081C137.645 67.6268 137.52 66.6248 136.831 65.3098C136.08 63.9322 134.515 63.0556 132.698 63.0556C130.883 63.0556 129.317 63.9322 128.566 65.3098C127.94 66.5621 127.752 67.6892 127.752 71.0081V85.9735Z" fill="#C8D8C0"/>
<path d="M170.655 76.5998V99.3736H167.339L166.147 95.8044C164.019 98.81 161.702 99.9998 158.321 99.9998C154.501 99.9998 151.308 98.1838 149.68 95.1155C148.302 92.4231 147.864 89.7305 147.864 83.9698V72.4482C147.864 65.8109 148.365 63.4313 150.306 60.8641C152.122 58.3593 155.315 56.9817 159.135 56.9817C166.336 56.9817 170.469 61.7407 170.469 69.9437V71.6781H164.019V70.3191C164.019 65.5604 162.329 63.0556 159.072 63.0556C157.382 63.0556 155.942 63.807 155.253 65.1847C154.501 66.5621 154.313 67.7519 154.313 71.1959V83.9698C154.313 87.4136 154.501 89.2296 155.002 90.7949C155.691 92.7361 157.319 93.9259 159.385 93.9259C162.767 93.9259 164.207 91.4839 164.207 85.6605V81.9221H158.885V76.5998H170.655Z" fill="#C8D8C0"/>
<path d="M48.8787 99.3737H55.5162L47.0629 57.6143H38.2339L30.219 99.3737H36.5432L37.7455 92.6924H47.6389L48.8787 99.3737ZM38.8726 86.4306L42.6172 65.6294L46.4742 86.4306H38.8726Z" fill="#C8D8C0"/>
<path d="M93.0362 99.3737H99.6737L91.2204 57.6143H82.3914L74.3762 99.3737H80.7007L81.903 92.6924H91.7964L93.0362 99.3737ZM83.0301 86.4306L86.7744 65.6294L90.6317 86.4306H83.0301Z" fill="#C8D8C0"/>
</svg>
