<svg width="273" height="56" viewBox="0 0 273 56" fill="none" xmlns="http://www.w3.org/2000/svg">
<path d="M28.2946 54.814L33.0577 7.7174C33.3257 5.30249 33.7955 4.89945 34.6007 4.89945H35.07V2.21648H27.355V4.89945H27.8248C28.898 4.89945 29.4346 5.6378 29.3006 7.7174L26.5499 35.8949L23.3971 7.7174C23.1281 5.50377 23.6647 4.89945 24.8733 4.89945H25.0069V2.21648H14.2726V4.89945H14.8101C15.8166 4.89945 15.8166 5.30249 16.0178 7.7174L16.823 14.8968L14.3399 37.7065L11.5229 7.7174C11.1871 5.30249 11.6569 4.89945 12.7301 4.89945H12.8636V2.21648H1.99536V4.89945H2.53243C3.67287 4.89945 3.73965 5.30249 4.00818 7.7174L8.83847 54.814H15.8161L18.5668 30.5944L21.3843 54.814H28.2946ZM74.5203 23.9535C74.5203 20.6662 74.5203 19.5253 76.5999 19.5253C78.0089 19.5253 78.0089 20.0619 78.0089 22.8126V50.9229C78.0089 51.9297 77.6731 52.1305 77.1365 52.1305H76.8017V54.8135H87.6027V52.1305H87.1329C86.3954 52.1305 86.1942 51.8615 86.1942 50.7883V21.3373C86.1942 16.5061 85.1878 14.6273 80.4242 14.6273C77.6731 14.6273 75.6612 15.4997 74.3863 18.5179C73.8487 15.835 72.4402 14.6273 68.7508 14.6273C65.7316 14.6273 64.1214 15.5669 62.9141 18.5179V14.6273L53.6556 15.3656V18.0486H54.0577C54.6616 18.0486 55.1309 18.5179 55.1309 19.9951V50.5866C55.1309 51.7943 54.8629 52.1305 54.0577 52.1305H53.6556V54.8135H63.9873V52.1305H63.5852C63.0482 52.1305 62.9141 51.9293 62.9141 51.1237V23.9535C62.9141 20.6662 62.8464 19.5253 64.926 19.5253C66.335 19.5253 66.335 20.0619 66.335 22.8126V50.9229C66.335 51.9297 65.9997 52.1305 65.5299 52.1305H65.0605V54.8135H75.6612V52.1305H75.5267C74.7893 52.1305 74.5203 51.8615 74.5203 50.7883V23.9535ZM149.997 54.814H162.946V52.131H162.073C160.933 52.131 160.598 51.6607 160.598 49.3131V29.0518H167.441V49.3126C167.441 51.6603 167.106 52.1305 166.032 52.1305H165.025V54.8135H177.907V52.1305H176.834C175.692 52.1305 175.492 51.6603 175.492 49.3126V7.7174C175.492 5.30249 175.692 4.89945 176.834 4.89945H177.907V2.21648H165.025V4.89945H166.032C167.106 4.89945 167.441 5.30249 167.441 7.7174V25.8976H160.598V7.7174C160.598 5.30249 160.933 4.89945 162.073 4.89945H162.946V2.21648H149.997V4.89945H151.138C152.212 4.89945 152.547 5.30249 152.547 7.7174V50.6538C152.547 51.7948 152.212 52.131 151.138 52.131H149.997V54.814ZM247.816 54.814H258.081V52.131H257.746C257.075 52.131 257.007 51.9297 257.007 51.1241V23.9535C257.007 20.6662 257.075 19.5253 259.155 19.5253C260.697 19.5253 260.697 20.0619 260.697 22.8126V50.9229C260.697 51.9297 260.429 52.1305 259.96 52.1305H259.49V54.8135H270.359V52.1305H269.889C269.151 52.1305 269.017 51.8615 269.017 50.7883V21.3373C269.017 16.5061 267.809 14.6273 263.112 14.6273C260.027 14.6273 258.283 15.5669 257.007 18.5179V1.41089L247.146 2.21648V4.89945H248.153C248.822 4.89945 249.225 5.30249 249.225 6.77871V50.5866C249.225 51.7943 249.023 52.1305 248.153 52.1305H247.816V54.814ZM42.786 55.2833C51.3743 55.2833 52.5815 48.1049 52.5815 34.9553C52.5815 21.7394 51.3066 14.6273 42.786 14.6273C34.2663 14.6273 32.9918 21.7394 32.9918 34.9553C32.9913 48.1049 34.199 55.2833 42.786 55.2833ZM107.797 54.814H118.129V52.131H117.659C117.056 52.131 117.056 51.9297 117.056 51.1241V23.9535C117.056 20.6662 117.056 19.5253 119.202 19.5253C120.678 19.5253 120.746 20.0619 120.746 22.8126V50.9229C120.746 51.9297 120.343 52.1305 119.94 52.1305H119.47V54.8135H130.339V52.1305H129.869C129.131 52.1305 128.931 51.8615 128.931 50.7883V21.3373C128.931 16.5061 127.79 14.6273 123.025 14.6273C120.008 14.6273 118.196 15.5669 117.056 18.5179V14.6273L107.126 15.3656V18.0486H108.2C108.804 18.0486 109.272 18.5179 109.272 19.9951V50.5866C109.272 51.7943 109.005 52.1305 108.2 52.1305H107.798V54.814H107.797ZM202.999 55.2833C206.555 55.2833 207.896 53.54 208.634 51.4594C209.304 54.5454 210.043 55.2833 214.068 55.2833C218.764 55.2833 219.368 52.4663 219.302 46.9645H217.087C217.087 50.9233 217.02 51.3254 216.281 51.3254C215.611 51.3254 215.611 50.9901 215.611 48.7755V22.6785C215.611 17.3784 213.867 14.6277 207.695 14.6277C202.797 14.6277 197.967 16.104 198.234 21.4036C198.369 23.8194 199.309 26.3684 201.858 26.2339C204.205 26.0999 205.279 24.8259 205.279 22.8794C205.279 21.5381 204.272 19.3235 202.663 18.1158C203.267 17.8478 204.205 17.5783 205.749 17.5783C207.494 17.5783 207.829 18.9205 207.829 21.4699V28.7824C198.906 31.8016 197.028 33.0093 197.028 44.2133C197.028 52.265 198.974 55.2833 202.999 55.2833ZM187.635 55.2833C194.276 55.2833 195.819 53.271 195.484 42.2687H192.733C192.733 50.9901 192.465 51.6607 189.379 51.6607C185.689 51.6607 185.689 50.0505 185.689 35.0907V33.8821H196.422C196.422 18.7879 194.746 14.6282 187.635 14.6282C181.194 14.6282 177.839 18.5871 177.839 35.2243C177.84 51.0569 180.389 55.351 187.635 55.2833ZM98.4709 55.2833C104.98 55.2833 106.791 53.271 106.522 42.2687H103.772C103.772 50.9901 103.37 51.6607 100.216 51.6607C96.2578 51.6607 96.4591 50.0505 96.4591 35.0907V33.8821H106.858C106.858 18.7879 105.449 14.6282 98.4714 14.6282C91.965 14.6282 88.61 18.5871 88.61 35.2243C88.6096 51.0569 91.1585 55.351 98.4709 55.2833ZM220.779 54.814H231.514V52.131H230.708C230.036 52.131 229.768 51.7948 229.768 50.722V1.41089L219.772 2.21648V4.89945H220.913C221.583 4.89945 221.852 5.16752 221.852 6.24165V50.8561C221.852 51.862 221.784 52.131 221.315 52.131H220.778V54.814H220.779ZM142.416 55.2833C147.314 55.2833 149.864 52.0628 149.864 47.2335C149.864 35.8954 139.599 29.3204 139.599 21.2023C139.599 18.7197 140.471 17.9818 142.215 17.9818C144.764 17.9818 145.167 19.0555 145.637 22.8794L146.038 26.636H148.99V14.9626H146.644C146.509 16.4398 146.174 16.9759 146.038 16.7741C145.302 15.9022 143.557 14.6277 140.672 14.6277C136.378 14.6277 132.622 16.5733 132.622 22.9466C132.622 32.8757 142.819 40.4572 142.819 48.0381C142.819 51.3254 142.082 51.862 139.733 51.862C137.386 51.862 136.782 50.7893 136.313 45.8245L135.977 42.5363H132.891V54.814H135.574C135.776 53.4718 136.246 52.6004 136.647 53.0024C137.519 54.0093 138.458 55.2833 142.416 55.2833ZM233.525 46.4956C233.525 52.8684 234.465 55.2833 240.771 55.2833C245.199 55.2833 246.206 53.54 246.206 48.6424V41.9997H243.522V48.9778C243.522 51.3254 243.32 51.5935 242.449 51.5935C241.577 51.5935 241.375 51.3254 241.375 49.2458V17.9818H246.273V14.9626H241.443V4.89945H238.692C236.746 13.8231 235.07 14.9626 232.453 14.9626H231.715V17.9146H233.526L233.525 46.4956ZM42.786 51.8615C40.9086 51.8615 40.9086 50.7888 40.9086 34.9553C40.9086 19.0555 40.9086 17.9818 42.786 17.9818C44.6647 17.9818 44.6647 19.0555 44.6647 34.9553C44.6647 50.8561 44.6647 51.8615 42.786 51.8615ZM131.279 16.641C137.988 11.6753 139.33 7.91868 137.116 4.49736C135.908 2.61905 133.157 1.41136 131.144 3.08839C128.729 5.10074 129.333 8.59024 133.828 10.6031C133.023 11.5417 131.144 13.3542 129.601 14.8972L131.279 16.641ZM206.219 50.5866C204.609 50.5866 204.609 48.9105 204.609 43.6104C204.609 33.9494 204.609 32.6744 207.829 30.9301V47.5011C207.829 49.9832 207.494 50.5866 206.219 50.5866ZM96.4586 31.0646C96.5926 18.5184 96.7944 17.915 98.5387 17.915C100.216 17.915 100.082 18.5866 100.082 31.0646H96.4586ZM185.69 31.0646C185.892 18.5184 186.026 17.915 187.77 17.915C189.514 17.915 189.245 18.5866 189.245 31.0646H185.69Z" fill="#C8D8C0"/>
</svg>
