<svg width="193" height="88" viewBox="0 0 193 88" fill="none" xmlns="http://www.w3.org/2000/svg">
<path fill-rule="evenodd" clip-rule="evenodd" d="M73.2871 0L64.8802 88H41.7582L36.4333 42.0389L31.2482 88H8.68874L0 0H17.9359L22 60.6751C22.7003 45.2618 24.5216 24.9422 27.0442 0H46.2419L50.1652 62.6362C51.1462 42.3186 52.8276 21.4395 55.0695 0H73.2871Z" fill="#C8D8C0"/>
<path fill-rule="evenodd" clip-rule="evenodd" d="M146.154 0L137.746 88H114.904C112.803 74.9685 110.982 59.5552 109.301 42.0389L104.115 88H81.2745L73.1472 0H91.0831L95.0064 60.6751C95.5668 46.5205 97.1084 26.3439 99.9107 0H118.829L123.033 62.6362C124.294 39.2366 126.116 18.4974 128.217 0H146.154ZM149.656 0V88H172.778L182.868 87.1609C184.969 86.5983 186.79 85.7592 188.193 84.0778C189.874 82.6761 190.854 80.5751 191.555 78.0525L192.397 61.9379V31.2492L191.695 14.4343C191.554 11.6309 190.294 9.10933 188.753 6.72659C187.072 4.48474 184.69 2.80335 181.466 1.68139L170.957 0.280749L149.656 0ZM170.957 15.4143L172.357 15.8349L173.758 18.4974L174.037 26.205V60.2565L173.057 71.0442L170.956 72.5867L168.152 72.8654V15.1335L170.957 15.4143Z" fill="#C8D8C0"/>
</svg>
